<svg xmlns="http://www.w3.org/2000/svg" version="1.1" xmlns:xlink="http://www.w3.org/1999/xlink" width="1500" height="1500" viewBox="0 0 1500 1500"><rect width="1500" height="1500" x="0" y="0" id="background" stroke="transparent" fill="#ffffff"></rect><svg xml:space="preserve" width="1000" height="1000" data-version="2" data-id="lg_nW3lzxhpxXCpgOowKk" viewBox="0 0 472 574" x="250" y="250"><rect width="100%" height="100%" fill="transparent"></rect><path fill="#ffd900" d="M171.9 104.237a167.633 167.633 0 1 0 0 335.266 167.633 167.633 0 1 0 0-335.266"></path><rect width="352" height="559.35" x="-176" y="-279.675" fill="none" rx="0" ry="0" transform="translate(288.15 285.69)"></rect><path fill="#ff851b" d="M214.35 442.51h-48.02V114.82h48.02v146.52h149.98V114.82h48.02v327.69h-48.02V280.15H214.35z" paint-order="stroke"></path><rect width="70" height="37.29" x="-35" y="-18.645" fill="none" rx="0" ry="0" transform="translate(288.15 477.51)"></rect><path fill="#e6720c" d="M260.61 487.38h-3.21v-21.85h3.21v9.77h9.99v-9.77h3.21v21.85h-3.21v-10.82h-9.99zm18.29 0h-1.78l9.8-22.37h.49l9.8 22.37h-3.59l-2.48-5.94h-9.8zm7.36-17.89-4.43 10.7h8.78zm22.27 18.29q-2.74 0-4.98-1.24-2.25-1.24-3.57-3.63t-1.32-5.86q0-2.7.73-4.72.73-2.01 1.96-3.38 1.24-1.37 2.78-2.21 1.53-.84 3.16-1.22 1.64-.38 3.16-.38 2.77 0 5.01 1.22 2.25 1.22 3.57 3.6 1.32 2.37 1.32 5.84 0 2.7-.73 4.72-.73 2.01-1.98 3.4-1.25 1.38-2.79 2.24-1.53.86-3.17 1.24-1.63.38-3.15.38m.96-1.09q1.98 0 3.38-.96t2.28-2.47q.87-1.52 1.28-3.3.42-1.79.42-3.4 0-2.05-.42-3.88-.41-1.83-1.35-3.22-.94-1.38-2.51-2.18-1.56-.79-3.91-.79-2.21.76-3.66 2.31t-2.14 3.57q-.7 2.01-.7 4.19 0 2.01.41 3.84.42 1.83 1.28 3.25.85 1.42 2.26 2.23 1.4.81 3.38.81"></path></svg></svg>